<svg width="24" height="24" viewBox="0 0 24 24" fill="none" xmlns="http://www.w3.org/2000/svg">
<rect width="24" height="24" rx="3" fill="#ED0102" fill-opacity="0.12"/>
<path d="M4 9.8H19.2C19.4122 9.8 19.6157 9.88429 19.7657 10.0343C19.9157 10.1843 20 10.3878 20 10.6V18.6C20 18.8122 19.9157 19.0157 19.7657 19.1657C19.6157 19.3157 19.4122 19.4 19.2 19.4H4.8C4.58783 19.4 4.38434 19.3157 4.23431 19.1657C4.08429 19.0157 4 18.8122 4 18.6V9.8ZM4.8 5H16.8V8.2H4V5.8C4 5.58783 4.08429 5.38434 4.23431 5.23431C4.38434 5.08429 4.58783 5 4.8 5V5ZM14.4 13.8V15.4H16.8V13.8H14.4Z" fill="#ED0102"/>
</svg>
