<svg width="24" height="24" viewBox="0 0 24 24" fill="none" xmlns="http://www.w3.org/2000/svg">
<rect width="24" height="24" rx="3" fill="#ED0102" fill-opacity="0.12"/>
<path d="M12 18.6667C8.31801 18.6667 5.33334 15.682 5.33334 12C5.33334 8.31801 8.31801 5.33334 12 5.33334C15.682 5.33334 18.6667 8.31801 18.6667 12C18.6667 15.682 15.682 18.6667 12 18.6667ZM11.3333 14V15.3333H12.6667V14H11.3333ZM12.6667 12.9033C13.2025 12.7419 13.6624 12.3933 13.9628 11.9212C14.2631 11.449 14.3839 10.8847 14.3032 10.331C14.2224 9.77726 13.9454 9.27097 13.5227 8.90431C13.1 8.53766 12.5596 8.33504 12 8.33334C11.4606 8.3333 10.9378 8.52011 10.5205 8.86201C10.1033 9.2039 9.81735 9.67976 9.71134 10.2087L11.0193 10.4707C11.0565 10.285 11.1456 10.1136 11.2763 9.97655C11.407 9.8395 11.5739 9.74237 11.7576 9.69648C11.9414 9.65059 12.1344 9.65782 12.3142 9.71732C12.494 9.77683 12.6532 9.88617 12.7732 10.0326C12.8933 10.1791 12.9693 10.3566 12.9925 10.5446C13.0156 10.7325 12.9849 10.9232 12.9039 11.0944C12.8229 11.2656 12.6949 11.4103 12.5349 11.5116C12.3749 11.6129 12.1894 11.6667 12 11.6667C11.8232 11.6667 11.6536 11.7369 11.5286 11.8619C11.4036 11.987 11.3333 12.1565 11.3333 12.3333V13.3333H12.6667V12.9033Z" fill="#ED0102"/>
</svg>
