<svg width="24" height="24" viewBox="0 0 24 24" fill="none" xmlns="http://www.w3.org/2000/svg">
<rect width="24" height="24" rx="3" fill="#ED0102" fill-opacity="0.12"/>
<path d="M19.3976 4.7936L19.4 19.2064C19.3983 19.4165 19.3141 19.6175 19.1654 19.766C19.0168 19.9145 18.8157 19.9985 18.6056 20H5.7944C5.58385 20 5.38191 19.9164 5.23296 19.7676C5.084 19.6188 5.00021 19.4169 5 19.2064V4.7936C5.00168 4.5835 5.08593 4.3825 5.23457 4.23401C5.38321 4.08552 5.5843 4.00146 5.7944 4H18.6024C19.0416 4 19.3976 4.3552 19.3976 4.7936ZM9.8 12.8V9.6C9.8 9.38783 9.88429 9.18434 10.0343 9.03431C10.1843 8.88429 10.3878 8.8 10.6 8.8C10.8122 8.8 11.0157 8.88429 11.1657 9.03431C11.3157 9.18434 11.4 9.38783 11.4 9.6V12.8C11.4 13.0122 11.4843 13.2157 11.6343 13.3657C11.7843 13.5157 11.9878 13.6 12.2 13.6C12.4122 13.6 12.6157 13.5157 12.7657 13.3657C12.9157 13.2157 13 13.0122 13 12.8V9.6C13 8.96348 12.7471 8.35303 12.2971 7.90294C11.847 7.45286 11.2365 7.2 10.6 7.2C9.96348 7.2 9.35303 7.45286 8.90294 7.90294C8.45286 8.35303 8.2 8.96348 8.2 9.6V12.8C8.2 13.8609 8.62143 14.8783 9.37157 15.6284C10.1217 16.3786 11.1391 16.8 12.2 16.8C13.2609 16.8 14.2783 16.3786 15.0284 15.6284C15.7786 14.8783 16.2 13.8609 16.2 12.8V8.8H14.6V12.8C14.6 13.4365 14.3471 14.047 13.8971 14.4971C13.447 14.9471 12.8365 15.2 12.2 15.2C11.5635 15.2 10.953 14.9471 10.5029 14.4971C10.0529 14.047 9.8 13.4365 9.8 12.8Z" fill="#ED0102"/>
</svg>
