<svg width="20" height="20" viewBox="0 0 20 20" fill="none" xmlns="http://www.w3.org/2000/svg">
<path d="M10 20C4.477 20 0 15.523 0 10C0 4.477 4.477 0 10 0C15.523 0 20 4.477 20 10C20 15.523 15.523 20 10 20ZM10 18C12.1217 18 14.1566 17.1571 15.6569 15.6569C17.1571 14.1566 18 12.1217 18 10C18 7.87827 17.1571 5.84344 15.6569 4.34315C14.1566 2.84285 12.1217 2 10 2C7.87827 2 5.84344 2.84285 4.34315 4.34315C2.84285 5.84344 2 7.87827 2 10C2 12.1217 2.84285 14.1566 4.34315 15.6569C5.84344 17.1571 7.87827 18 10 18V18ZM5 13.32C7.15505 13.1652 9.18169 12.2372 10.707 10.707C12.2372 9.18169 13.1652 7.15505 13.32 5C14.0589 5.49228 14.6793 6.1424 15.1366 6.90349C15.5938 7.66457 15.8764 8.51765 15.964 9.40118C16.0516 10.2847 15.9421 11.1767 15.6433 12.0127C15.3444 12.8488 14.8638 13.6081 14.2359 14.2359C13.6081 14.8638 12.8488 15.3444 12.0127 15.6433C11.1767 15.9421 10.2847 16.0516 9.40118 15.964C8.51765 15.8764 7.66457 15.5938 6.90349 15.1366C6.1424 14.6793 5.49228 14.0589 5 13.32V13.32Z" fill="#ED0102"/>
<path fill-rule="evenodd" clip-rule="evenodd" d="M5.13965 11.6396C8.72949 11.6396 11.6396 8.72946 11.6396 5.13962C11.6396 4.39001 11.5127 3.67004 11.2793 3C13.8179 3.88464 15.6396 6.29938 15.6396 9.13962C15.6396 12.7295 12.7295 15.6396 9.13965 15.6396C6.29932 15.6396 3.88452 13.8179 3 11.2792C3.66992 11.5127 4.39014 11.6396 5.13965 11.6396Z" fill="#ED0102" fill-opacity="0.21"/>
</svg>
