<svg width="137" height="40" viewBox="0 0 137 40" fill="none" xmlns="http://www.w3.org/2000/svg">
<circle cx="20" cy="20" r="20" fill="#ED0102"/>
<path d="M16.716 24C16.436 24 16.22 23.924 16.068 23.772C15.916 23.62 15.84 23.404 15.84 23.124V16.416C15.84 16.136 15.916 15.92 16.068 15.768C16.22 15.616 16.436 15.54 16.716 15.54H19.128C20.048 15.54 20.84 15.708 21.504 16.044C22.168 16.38 22.676 16.864 23.028 17.496C23.38 18.128 23.556 18.884 23.556 19.764C23.556 20.644 23.38 21.404 23.028 22.044C22.684 22.676 22.18 23.16 21.516 23.496C20.852 23.832 20.056 24 19.128 24H16.716ZM18.996 22.488C20.796 22.488 21.696 21.58 21.696 19.764C21.696 17.956 20.796 17.052 18.996 17.052H17.712V22.488H18.996ZM32.642 22.86C32.706 23.004 32.738 23.132 32.738 23.244C32.738 23.468 32.646 23.66 32.462 23.82C32.286 23.972 32.082 24.048 31.85 24.048C31.698 24.048 31.554 24.008 31.418 23.928C31.282 23.84 31.178 23.712 31.106 23.544L30.47 22.128H26.402L25.766 23.544C25.694 23.712 25.59 23.84 25.454 23.928C25.326 24.008 25.182 24.048 25.022 24.048C24.79 24.048 24.582 23.972 24.398 23.82C24.214 23.66 24.122 23.468 24.122 23.244C24.122 23.132 24.154 23.004 24.218 22.86L27.458 16.056C27.546 15.864 27.678 15.72 27.854 15.624C28.03 15.52 28.218 15.468 28.418 15.468C28.626 15.468 28.818 15.52 28.994 15.624C29.17 15.728 29.306 15.872 29.402 16.056L32.642 22.86ZM29.834 20.712L28.442 17.592L27.038 20.712H29.834ZM36.7005 24.108C36.0685 24.108 35.4805 24.036 34.9365 23.892C34.3925 23.74 33.9485 23.528 33.6045 23.256C33.4845 23.168 33.3965 23.076 33.3405 22.98C33.2925 22.876 33.2685 22.748 33.2685 22.596C33.2685 22.396 33.3285 22.22 33.4485 22.068C33.5765 21.916 33.7205 21.84 33.8805 21.84C33.9685 21.84 34.0525 21.856 34.1325 21.888C34.2205 21.912 34.3245 21.96 34.4445 22.032C34.7885 22.248 35.1365 22.408 35.4885 22.512C35.8405 22.608 36.2285 22.656 36.6525 22.656C37.1805 22.656 37.5845 22.568 37.8645 22.392C38.1445 22.216 38.2845 21.964 38.2845 21.636C38.2845 21.388 38.1525 21.188 37.8885 21.036C37.6325 20.884 37.1725 20.74 36.5085 20.604C35.7645 20.452 35.1685 20.268 34.7205 20.052C34.2805 19.836 33.9565 19.568 33.7485 19.248C33.5485 18.928 33.4485 18.54 33.4485 18.084C33.4485 17.58 33.5925 17.128 33.8805 16.728C34.1765 16.32 34.5805 16.004 35.0925 15.78C35.6125 15.548 36.1965 15.432 36.8445 15.432C37.9805 15.432 38.9165 15.716 39.6525 16.284C39.7725 16.38 39.8565 16.48 39.9045 16.584C39.9605 16.68 39.9885 16.8 39.9885 16.944C39.9885 17.144 39.9245 17.32 39.7965 17.472C39.6765 17.624 39.5365 17.7 39.3765 17.7C39.2885 17.7 39.2045 17.688 39.1245 17.664C39.0525 17.64 38.9485 17.588 38.8125 17.508C38.4845 17.3 38.1805 17.144 37.9005 17.04C37.6285 16.936 37.2805 16.884 36.8565 16.884C36.3685 16.884 35.9845 16.98 35.7045 17.172C35.4245 17.356 35.2845 17.612 35.2845 17.94C35.2845 18.132 35.3365 18.292 35.4405 18.42C35.5525 18.54 35.7325 18.648 35.9805 18.744C36.2365 18.84 36.5965 18.94 37.0605 19.044C38.1485 19.284 38.9285 19.592 39.4005 19.968C39.8805 20.344 40.1205 20.86 40.1205 21.516C40.1205 22.028 39.9765 22.48 39.6885 22.872C39.4085 23.264 39.0085 23.568 38.4885 23.784C37.9765 24 37.3805 24.108 36.7005 24.108ZM48.1169 15.48C48.3969 15.48 48.6209 15.564 48.7889 15.732C48.9569 15.9 49.0409 16.124 49.0409 16.404V23.136C49.0409 23.416 48.9569 23.644 48.7889 23.82C48.6209 23.988 48.3969 24.072 48.1169 24.072C47.8369 24.072 47.6129 23.988 47.4449 23.82C47.2849 23.652 47.2049 23.424 47.2049 23.136V20.448H43.3049V23.136C43.3049 23.416 43.2209 23.644 43.0529 23.82C42.8849 23.988 42.6649 24.072 42.3929 24.072C42.1129 24.072 41.8889 23.988 41.7209 23.82C41.5529 23.652 41.4689 23.424 41.4689 23.136V16.404C41.4689 16.124 41.5529 15.9 41.7209 15.732C41.8889 15.564 42.1129 15.48 42.3929 15.48C42.6729 15.48 42.8929 15.564 43.0529 15.732C43.2209 15.9 43.3049 16.124 43.3049 16.404V18.96H47.2049V16.404C47.2049 16.124 47.2849 15.9 47.4449 15.732C47.6129 15.564 47.8369 15.48 48.1169 15.48ZM56.1627 19.62C56.6507 19.764 57.0267 20.016 57.2907 20.376C57.5627 20.728 57.6987 21.164 57.6987 21.684C57.6987 22.396 57.4347 22.96 56.9067 23.376C56.3867 23.792 55.6667 24 54.7467 24H51.6027C51.3227 24 51.1067 23.924 50.9547 23.772C50.8027 23.62 50.7267 23.404 50.7267 23.124V16.416C50.7267 16.136 50.8027 15.92 50.9547 15.768C51.1067 15.616 51.3227 15.54 51.6027 15.54H54.6267C55.5067 15.54 56.2027 15.736 56.7147 16.128C57.2347 16.52 57.4947 17.056 57.4947 17.736C57.4947 18.176 57.3747 18.564 57.1347 18.9C56.9027 19.228 56.5787 19.468 56.1627 19.62ZM52.5507 18.984H54.3147C54.7947 18.984 55.1467 18.904 55.3707 18.744C55.6027 18.576 55.7187 18.324 55.7187 17.988C55.7187 17.636 55.6027 17.38 55.3707 17.22C55.1467 17.052 54.7947 16.968 54.3147 16.968H52.5507V18.984ZM54.5307 22.572C55.0267 22.572 55.3867 22.488 55.6107 22.32C55.8347 22.152 55.9467 21.88 55.9467 21.504C55.9467 21.128 55.8347 20.852 55.6107 20.676C55.3867 20.5 55.0267 20.412 54.5307 20.412H52.5507V22.572H54.5307ZM62.8882 24.108C62.0482 24.108 61.3162 23.932 60.6922 23.58C60.0762 23.22 59.6002 22.716 59.2642 22.068C58.9282 21.412 58.7602 20.644 58.7602 19.764C58.7602 18.884 58.9282 18.12 59.2642 17.472C59.6002 16.816 60.0762 16.312 60.6922 15.96C61.3162 15.608 62.0482 15.432 62.8882 15.432C63.7282 15.432 64.4562 15.608 65.0722 15.96C65.6962 16.312 66.1762 16.816 66.5122 17.472C66.8482 18.12 67.0162 18.884 67.0162 19.764C67.0162 20.644 66.8482 21.412 66.5122 22.068C66.1762 22.716 65.6962 23.22 65.0722 23.58C64.4562 23.932 63.7282 24.108 62.8882 24.108ZM62.8882 22.656C63.5922 22.656 64.1442 22.408 64.5442 21.912C64.9522 21.416 65.1562 20.7 65.1562 19.764C65.1562 18.828 64.9562 18.116 64.5562 17.628C64.1562 17.132 63.6002 16.884 62.8882 16.884C62.1762 16.884 61.6202 17.132 61.2202 17.628C60.8282 18.116 60.6322 18.828 60.6322 19.764C60.6322 20.7 60.8322 21.416 61.2322 21.912C61.6322 22.408 62.1842 22.656 62.8882 22.656ZM76.0951 22.86C76.1591 23.004 76.1911 23.132 76.1911 23.244C76.1911 23.468 76.0991 23.66 75.9151 23.82C75.7391 23.972 75.5351 24.048 75.3031 24.048C75.1511 24.048 75.0071 24.008 74.8711 23.928C74.7351 23.84 74.6311 23.712 74.5591 23.544L73.9231 22.128H69.8551L69.2191 23.544C69.1471 23.712 69.0431 23.84 68.9071 23.928C68.7791 24.008 68.6351 24.048 68.4751 24.048C68.2431 24.048 68.0351 23.972 67.8511 23.82C67.6671 23.66 67.5751 23.468 67.5751 23.244C67.5751 23.132 67.6071 23.004 67.6711 22.86L70.9111 16.056C70.9991 15.864 71.1311 15.72 71.3071 15.624C71.4831 15.52 71.6711 15.468 71.8711 15.468C72.0791 15.468 72.2711 15.52 72.4471 15.624C72.6231 15.728 72.7591 15.872 72.8551 16.056L76.0951 22.86ZM73.2871 20.712L71.8951 17.592L70.4911 20.712H73.2871ZM84.1588 22.812C84.2788 22.988 84.3388 23.16 84.3388 23.328C84.3388 23.552 84.2468 23.736 84.0628 23.88C83.8868 24.024 83.6788 24.096 83.4388 24.096C83.2868 24.096 83.1388 24.06 82.9948 23.988C82.8508 23.916 82.7308 23.804 82.6348 23.652L81.0508 21.3C80.9148 21.092 80.7708 20.944 80.6188 20.856C80.4668 20.76 80.2748 20.712 80.0428 20.712H79.0708V23.136C79.0708 23.424 78.9868 23.652 78.8188 23.82C78.6588 23.988 78.4388 24.072 78.1588 24.072C77.8708 24.072 77.6428 23.988 77.4748 23.82C77.3068 23.652 77.2228 23.424 77.2228 23.136V16.416C77.2228 16.136 77.2988 15.92 77.4508 15.768C77.6028 15.616 77.8188 15.54 78.0988 15.54H81.1108C82.1028 15.54 82.8508 15.76 83.3548 16.2C83.8668 16.632 84.1228 17.26 84.1228 18.084C84.1228 18.732 83.9428 19.272 83.5828 19.704C83.2228 20.136 82.7148 20.42 82.0588 20.556C82.2988 20.604 82.5108 20.7 82.6948 20.844C82.8868 20.98 83.0708 21.18 83.2468 21.444L84.1588 22.812ZM80.8348 19.296C81.3708 19.296 81.7588 19.204 81.9988 19.02C82.2388 18.828 82.3588 18.532 82.3588 18.132C82.3588 17.724 82.2388 17.428 81.9988 17.244C81.7588 17.06 81.3708 16.968 80.8348 16.968H79.0468V19.296H80.8348ZM86.5129 24C86.2329 24 86.0169 23.924 85.8649 23.772C85.7129 23.62 85.6369 23.404 85.6369 23.124V16.416C85.6369 16.136 85.7129 15.92 85.8649 15.768C86.0169 15.616 86.2329 15.54 86.5129 15.54H88.9249C89.8449 15.54 90.6369 15.708 91.3009 16.044C91.9649 16.38 92.4729 16.864 92.8249 17.496C93.1769 18.128 93.3529 18.884 93.3529 19.764C93.3529 20.644 93.1769 21.404 92.8249 22.044C92.4809 22.676 91.9769 23.16 91.3129 23.496C90.6489 23.832 89.8529 24 88.9249 24H86.5129ZM88.7929 22.488C90.5929 22.488 91.4929 21.58 91.4929 19.764C91.4929 17.956 90.5929 17.052 88.7929 17.052H87.5089V22.488H88.7929Z" fill="white"/>
</svg>
