<svg width="24" height="24" viewBox="0 0 24 24" fill="none" xmlns="http://www.w3.org/2000/svg">
<rect width="24" height="24" rx="3" fill="#ED0102" fill-opacity="0.12"/>
<path d="M15.4 4L19.4 8V19.2064C19.3998 19.4169 19.316 19.6188 19.167 19.7676C19.0181 19.9164 18.8161 20 18.6056 20H5.7944C5.5843 19.9985 5.38321 19.9145 5.23457 19.766C5.08593 19.6175 5.00168 19.4165 5 19.2064V4.7936C5 4.3552 5.356 4 5.7944 4H15.4ZM12.2 8.8C11.5671 8.8 10.9484 8.98768 10.4222 9.3393C9.89594 9.69092 9.48579 10.1907 9.24358 10.7754C9.00138 11.3601 8.93801 12.0035 9.06149 12.6243C9.18496 13.245 9.48973 13.8152 9.93726 14.2627C10.3848 14.7103 10.955 15.015 11.5757 15.1385C12.1964 15.262 12.8399 15.1986 13.4246 14.9564C14.0093 14.7142 14.5091 14.3041 14.8607 13.7778C15.2123 13.2516 15.4 12.6329 15.4 12H12.2V8.8Z" fill="#ED0102"/>
</svg>
