<svg width="24" height="24" viewBox="0 0 24 24" fill="none" xmlns="http://www.w3.org/2000/svg">
<rect width="24" height="24" rx="3" fill="#ED0102" fill-opacity="0.12"/>
<path d="M18.6667 15.3347C18.6664 16.2464 18.3547 17.1306 17.7834 17.8411C17.212 18.5515 16.4151 19.0455 15.5247 19.2413L15.0993 17.9653C15.4888 17.9012 15.8592 17.7514 16.1839 17.5269C16.5085 17.3023 16.7793 17.0085 16.9767 16.6667H15.3333C14.9797 16.6667 14.6406 16.5262 14.3905 16.2762C14.1405 16.0261 14 15.687 14 15.3333V12.6667C14 12.3131 14.1405 11.9739 14.3905 11.7239C14.6406 11.4738 14.9797 11.3333 15.3333 11.3333H17.292C17.1293 10.0446 16.502 8.85953 15.5276 8.00046C14.5533 7.1414 13.299 6.66739 12 6.66739C10.701 6.66739 9.44672 7.1414 8.47239 8.00046C7.49806 8.85953 6.8707 10.0446 6.70801 11.3333H8.66668C9.0203 11.3333 9.35944 11.4738 9.60949 11.7239C9.85953 11.9739 10 12.3131 10 12.6667V15.3333C10 15.687 9.85953 16.0261 9.60949 16.2762C9.35944 16.5262 9.0203 16.6667 8.66668 16.6667H6.66668C6.31305 16.6667 5.97392 16.5262 5.72387 16.2762C5.47382 16.0261 5.33334 15.687 5.33334 15.3333V12C5.33334 8.31801 8.31801 5.33334 12 5.33334C15.682 5.33334 18.6667 8.31801 18.6667 12V15.3347Z" fill="#ED0102"/>
</svg>
