<svg width="24" height="24" viewBox="0 0 24 24" fill="none" xmlns="http://www.w3.org/2000/svg">
<rect width="24" height="24" rx="3" fill="#ED0102" fill-opacity="0.12"/>
<path d="M9.96351 4.17009C11.0424 3.94384 12.1565 3.9433 13.2356 4.16849C13.3075 4.64302 13.4854 5.09524 13.7561 5.49155C14.0268 5.88785 14.3834 6.21805 14.7993 6.45759C15.2148 6.69797 15.6792 6.84156 16.1579 6.87771C16.6366 6.91385 17.1173 6.8416 17.5643 6.66635C18.2987 7.48862 18.8551 8.45399 19.1983 9.50174C18.8235 9.80134 18.521 10.1816 18.3133 10.6141C18.1056 11.0467 17.998 11.5205 17.9986 12.0004C17.9986 13.0114 18.4673 13.9128 19.1999 14.4991C18.8547 15.5459 18.2976 16.5105 17.5635 17.3328C17.1166 17.1577 16.6361 17.0855 16.1575 17.1217C15.679 17.1578 15.2147 17.3014 14.7993 17.5416C14.3837 17.7811 14.0274 18.1111 13.7569 18.5071C13.4863 18.9031 13.3084 19.3549 13.2364 19.8291C12.1576 20.0559 11.0436 20.057 9.96431 19.8323C9.89277 19.3574 9.71501 18.9047 9.44428 18.5079C9.17355 18.1112 8.81682 17.7806 8.40065 17.5408C7.98503 17.3006 7.5206 17.1571 7.04189 17.1211C6.56319 17.0851 6.08252 17.1575 5.63565 17.3328C4.90108 16.5103 4.34473 15.5447 4.0016 14.4967C4.37623 14.1972 4.67862 13.8173 4.88632 13.385C5.09401 12.9527 5.20168 12.4792 5.20134 11.9996C5.20173 11.5196 5.09393 11.0457 4.88594 10.6131C4.67796 10.1805 4.37514 9.80038 4 9.50094C4.34526 8.45406 4.9023 7.48945 5.63645 6.66715C6.08327 6.84228 6.56382 6.91445 7.04238 6.87831C7.52094 6.84217 7.98519 6.69864 8.40065 6.45839C8.8162 6.21892 9.17247 5.88894 9.44303 5.49293C9.71359 5.09692 9.89149 4.64506 9.96351 4.17089V4.17009ZM11.6 14.3999C12.2363 14.3999 12.8467 14.1471 13.2967 13.6971C13.7466 13.2471 13.9994 12.6368 13.9994 12.0004C13.9994 11.364 13.7466 10.7537 13.2967 10.3037C12.8467 9.85372 12.2363 9.60092 11.6 9.60092C10.9636 9.60092 10.3533 9.85372 9.90327 10.3037C9.45328 10.7537 9.20048 11.364 9.20048 12.0004C9.20048 12.6368 9.45328 13.2471 9.90327 13.6971C10.3533 14.1471 10.9636 14.3999 11.6 14.3999V14.3999Z" fill="#ED0102"/>
</svg>
